  <svg version="1.0" xmlns="http://www.w3.org/2000/svg"  width="600.000000pt" height="544.000000pt" viewBox="0 0 600.000000 544.000000"  preserveAspectRatio="xMidYMid meet"> <g transform="translate(0.000000,544.000000) scale(0.100000,-0.100000)" fill="#000000" stroke="none"> <path d="M0 2720 l0 -2720 3000 0 3000 0 0 2720 0 2720 -3000 0 -3000 0 0 -2720z m3387 1584 c-3 -3 -12 -4 -19 -1 -8 3 -5 6 6 6 11 1 17 -2 13 -5z m-256 -20 c57 -3 111 -10 120 -15 10 -5 31 -9 48 -9 17 0 31 -4 31 -9 0 -5 12 -11 28 -14 43 -9 102 -31 102 -39 0 -5 9 -8 20 -8 11 0 20 -4 20 -10 0 -5 7 -10 16 -10 8 0 30 -11 48 -25 18 -14 37 -25 43 -25 5 0 27 -16 49 -35 21 -19 42 -35 46 -35 11 0 127 -119 163 -166 16 -21 37 -47 47 -58 9 -10 30 -44 45 -75 15 -31 31 -57 36 -59 4 -2 7 -15 7 -28 0 -13 4 -24 9 -24 5 0 12 -10 16 -22 3 -13 10 -32 14 -43 14 -32 30 -95 46 -178 13 -65 15 -198 15 -852 0 -545 -4 -783 -12 -802 -6 -16 -13 -44 -15 -63 -2 -19 -8 -36 -13 -38 -6 -2 -10 -12 -10 -22 0 -10 -11 -38 -25 -61 -14 -24 -25 -50 -25 -56 0 -7 -6 -21 -14 -30 -8 -10 -31 -38 -51 -63 -56 -69 -104 -120 -115 -120 -5 0 -20 -10 -34 -23 -42 -38 -55 -47 -70 -47 -8 0 -16 -3 -18 -7 -1 -5 -21 -16 -43 -27 -22 -10 -48 -22 -57 -27 -10 -5 -34 -9 -53 -9 -22 0 -34 -4 -30 -10 4 -6 -19 -10 -63 -10 -38 0 -71 -2 -74 -5 -7 -7 -1973 -6 -2108 1 -58 3 -109 10 -114 15 -6 5 -22 9 -37 9 -15 0 -31 5 -34 10 -3 6 -14 10 -23 10 -22 0 -126 53 -166 86 -56 44 -99 79 -110 90 -29 29 -56 65 -56 74 0 6 -4 10 -10 10 -5 0 -10 5 -10 10 0 10 -8 22 -37 55 -7 7 -13 21 -13 29 0 9 -3 16 -8 16 -10 0 -42 92 -42 121 0 19 -2 21 -10 9 -7 -11 -10 -3 -11 30 -1 25 -2 51 -2 57 1 7 -3 10 -8 7 -11 -7 -5 791 6 851 4 22 11 45 16 51 5 6 10 24 11 40 1 16 5 31 8 34 3 3 20 34 39 69 18 36 47 83 65 105 36 47 103 116 111 116 4 0 23 16 43 35 20 19 43 35 50 35 6 0 12 5 12 10 0 6 8 10 19 10 10 0 24 7 31 15 7 8 21 15 31 15 11 0 19 5 19 10 0 6 10 10 23 10 13 0 27 4 33 8 5 5 43 17 84 26 69 15 172 17 1198 14 l1124 -3 -7 40 c-3 22 -10 44 -16 50 -5 5 -9 21 -9 37 0 15 -12 49 -27 75 -14 26 -31 57 -37 68 -14 25 -96 105 -107 105 -5 0 -9 5 -9 10 0 6 -7 10 -15 10 -8 0 -15 4 -15 10 0 5 -11 12 -25 16 -14 3 -25 10 -25 15 0 5 -13 9 -29 9 -16 0 -31 5 -33 10 -2 7 -283 11 -860 11 -534 0 -860 4 -863 9 -4 6 -14 10 -24 10 -10 0 -24 7 -31 15 -7 8 -21 15 -31 15 -11 0 -19 5 -19 10 0 6 -6 10 -13 10 -18 0 -87 75 -87 93 0 8 -6 17 -14 20 -23 9 -49 197 -27 197 6 0 11 9 11 19 0 50 75 140 150 180 l45 25 808 2 c444 1 811 4 814 8 3 3 9 3 13 1 5 -3 54 -8 111 -11z m544 -124 c3 -5 1 -10 -4 -10 -6 0 -11 5 -11 10 0 6 2 10 4 10 3 0 8 -4 11 -10z m-2855 -1074 c0 -3 -4 -8 -10 -11 -5 -3 -10 -1 -10 4 0 6 5 11 10 11 6 0 10 -2 10 -4z m4508 -76 c23 -10 42 -16 42 -12 0 9 42 -39 58 -66 16 -29 18 -1512 1 -1543 -16 -32 -42 -59 -55 -59 -6 0 -17 -7 -24 -16 -11 -12 -28 -14 -83 -10 -39 3 -73 10 -76 15 -4 5 -19 13 -34 16 -15 4 -27 11 -27 16 0 5 -7 9 -15 9 -8 0 -23 4 -33 9 -47 26 -216 103 -228 105 -8 1 -20 8 -26 14 -7 7 -22 12 -35 12 -13 0 -23 5 -23 10 0 6 -7 10 -15 10 -9 0 -33 11 -55 25 -22 14 -49 25 -60 25 -11 0 -20 5 -20 10 0 6 -7 10 -15 10 -9 0 -38 11 -65 25 -27 14 -57 25 -65 25 -9 0 -13 5 -10 10 3 6 -3 10 -15 10 -12 0 -28 7 -36 15 -8 8 -21 12 -29 9 -8 -4 -15 -1 -15 5 0 6 -6 11 -14 11 -20 0 -96 86 -96 109 0 11 -4 23 -10 26 -12 8 -14 685 -2 685 5 0 15 16 22 36 21 54 66 86 190 136 43 17 94 40 112 49 10 5 25 9 33 9 8 0 15 5 15 10 0 6 9 10 19 10 11 0 27 7 35 16 9 8 20 13 24 10 5 -3 18 1 28 9 10 8 29 15 42 15 13 0 30 7 38 15 9 8 24 15 35 15 10 0 19 5 19 10 0 6 9 10 19 10 11 0 23 5 26 10 3 6 17 10 31 10 13 0 24 3 24 8 0 7 51 27 98 39 12 3 22 9 22 14 0 5 11 9 25 9 14 0 25 5 25 10 0 6 8 10 18 10 9 0 26 7 36 15 11 8 28 15 38 15 10 0 18 5 18 10 0 16 41 11 88 -10z m-371 -16 c-3 -3 -12 -4 -19 -1 -8 3 -5 6 6 6 11 1 17 -2 13 -5z m-72 -24 c3 -5 1 -10 -4 -10 -6 0 -11 5 -11 10 0 6 2 10 4 10 3 0 8 -4 11 -10z m-255 -1460 c0 -5 -2 -10 -4 -10 -3 0 -8 5 -11 10 -3 6 -1 10 4 10 6 0 11 -4 11 -10z m-730 -230 c0 -5 -5 -10 -11 -10 -5 0 -7 5 -4 10 3 6 8 10 11 10 2 0 4 -4 4 -10z m1430 -30 c0 -5 -4 -10 -10 -10 -5 0 -10 5 -10 10 0 6 5 10 10 10 6 0 10 -4 10 -10z m-50 -20 c0 -5 -2 -10 -4 -10 -3 0 -8 5 -11 10 -3 6 -1 10 4 10 6 0 11 -4 11 -10z"/> <path d="M1400 4251 c0 -5 -15 -14 -34 -21 -54 -18 -121 -90 -143 -155 -16 -49 -7 -140 21 -198 27 -57 70 -110 81 -99 3 4 11 -1 16 -11 6 -9 21 -17 34 -17 13 0 25 -4 27 -10 2 -6 298 -10 846 -10 464 0 842 -4 842 -9 0 -13 53 -21 64 -10 6 5 17 9 25 9 14 0 14 -1 1 -10 -8 -5 -10 -10 -5 -11 25 -4 32 -7 56 -17 14 -6 32 -16 40 -24 8 -7 32 -26 54 -43 46 -34 95 -82 95 -93 0 -5 11 -21 24 -38 14 -16 25 -33 25 -38 -1 -5 4 -12 9 -15 6 -3 12 -19 13 -36 2 -16 8 -33 13 -36 15 -11 19 -104 7 -142 -9 -27 -16 -34 -28 -30 -11 4 -14 2 -9 -5 10 -16 -16 -16 -32 0 -9 9 -12 9 -12 0 0 -9 -6 -9 -25 0 -19 9 -28 9 -37 0 -16 -16 -1983 -17 -2024 -2 -15 6 -30 7 -33 2 -3 -4 -26 -9 -51 -10 -71 -4 -179 -32 -250 -66 -36 -17 -66 -34 -68 -38 -2 -4 -19 -17 -38 -28 -19 -12 -31 -27 -28 -32 4 -7 2 -8 -5 -4 -7 5 -22 -3 -37 -21 -13 -15 -37 -41 -52 -57 -15 -17 -26 -32 -24 -34 2 -2 -7 -13 -20 -24 -13 -11 -23 -23 -24 -26 -1 -14 -29 -67 -38 -73 -5 -4 -5 -12 -2 -18 4 -6 3 -11 -2 -11 -5 0 -14 -12 -19 -27 -6 -16 -16 -44 -24 -63 -18 -48 -25 -880 -7 -880 9 0 9 -3 1 -11 -7 -7 -6 -25 5 -62 8 -29 18 -54 21 -57 3 -3 15 -31 25 -63 11 -32 24 -61 29 -64 6 -4 7 -1 2 7 -5 9 -4 11 4 6 6 -4 9 -11 6 -15 -2 -5 6 -20 18 -33 13 -14 29 -39 36 -57 8 -17 17 -31 22 -31 7 0 69 -53 122 -103 10 -10 25 -16 33 -13 8 3 14 -1 14 -8 0 -8 8 -16 18 -20 9 -3 37 -17 61 -31 24 -14 46 -23 49 -20 2 2 17 -2 32 -10 15 -8 36 -13 46 -13 10 1 48 -4 84 -10 75 -14 2142 -12 2220 1 25 5 48 14 52 20 5 8 8 7 8 -3 0 -10 3 -11 8 -4 4 6 22 15 40 19 17 3 32 11 32 16 0 5 9 9 19 9 11 0 26 7 35 15 8 8 22 15 31 15 11 0 15 5 11 16 -3 8 -2 12 3 9 13 -7 62 16 55 26 -3 5 4 9 15 9 12 0 21 4 21 9 0 5 9 13 20 16 12 4 20 15 20 28 0 18 2 19 10 7 9 -13 10 -13 10 0 0 8 15 29 33 47 19 18 42 48 53 68 10 19 22 35 26 35 5 0 8 7 8 16 0 9 9 29 21 46 12 16 19 32 15 35 -3 3 2 22 10 42 9 20 20 61 25 91 10 63 13 1555 3 1572 -4 6 -6 33 -5 61 1 27 -3 55 -9 62 -9 11 -19 48 -37 137 -3 15 -9 26 -13 23 -4 -2 -13 15 -21 38 -7 23 -19 46 -26 50 -8 5 -11 12 -8 18 5 7 -99 158 -134 194 -47 48 -132 125 -139 125 -4 0 -25 16 -45 35 -20 19 -44 35 -52 35 -8 0 -15 4 -15 9 0 11 -39 26 -57 23 -7 -2 -13 4 -13 12 0 10 -16 19 -42 26 -44 11 -51 14 -123 46 -22 10 -58 19 -80 20 -22 2 -56 8 -75 14 -45 13 -1760 14 -1760 1z m2037 -667 c-3 -3 -12 -4 -19 -1 -8 3 -5 6 6 6 11 1 17 -2 13 -5z m-152 -946 c63 -7 185 -94 185 -133 0 -17 28 -27 33 -12 2 7 5 -1 5 -18 3 -66 14 -141 23 -150 19 -19 10 -149 -16 -223 -14 -39 -25 -78 -25 -86 0 -9 -6 -13 -12 -11 -7 3 -21 -7 -31 -22 -24 -36 -107 -93 -134 -93 -12 0 -23 -6 -25 -12 -4 -10 -197 -13 -915 -14 -501 -1 -916 -5 -922 -8 -6 -4 -11 -2 -11 3 0 6 -10 11 -22 11 -34 0 -158 49 -158 62 0 4 -16 22 -35 39 -19 18 -35 38 -35 46 0 8 -10 28 -22 44 -22 29 -23 42 -25 200 -2 141 0 171 12 176 8 3 15 12 15 19 0 8 8 27 17 42 23 36 103 116 103 102 0 -7 5 -6 15 2 9 7 21 18 28 23 7 6 37 12 67 14 30 1 56 4 58 6 5 4 1788 -3 1827 -7z m242 -570 c-3 -8 -6 -5 -6 6 -1 11 2 17 5 13 3 -3 4 -12 1 -19z m273 -718 c0 -5 -2 -10 -4 -10 -3 0 -8 5 -11 10 -3 6 -1 10 4 10 6 0 11 -4 11 -10z"/> <path d="M2298 2612 c-601 -1 -918 -6 -918 -12 0 -6 -10 -10 -23 -10 -13 0 -43 -17 -67 -37 -57 -48 -82 -73 -74 -73 4 0 -1 -11 -10 -25 -9 -13 -16 -36 -16 -50 0 -14 -4 -25 -10 -25 -13 0 -13 -237 0 -245 6 -3 10 -17 10 -29 0 -43 84 -146 131 -161 10 -4 19 -10 19 -14 0 -5 14 -11 32 -15 18 -3 432 -6 922 -6 699 0 892 -3 904 -12 13 -10 14 -10 8 0 -5 9 5 12 38 12 44 0 116 26 116 42 0 4 6 8 13 8 14 0 63 56 83 94 6 11 19 36 29 55 15 28 17 52 13 160 -3 69 -10 135 -15 146 -6 11 -17 33 -24 50 -24 52 -110 125 -147 125 -12 0 -23 4 -26 9 -3 5 -20 10 -38 12 -18 2 -446 3 -950 1z"/> <path d="M5212 2964 c-12 -8 -22 -12 -22 -8 0 3 -11 -1 -25 -10 -13 -9 -30 -16 -37 -16 -7 -1 -31 -9 -53 -20 -22 -11 -46 -19 -53 -20 -7 0 -20 -4 -30 -9 -9 -5 -35 -17 -57 -27 -22 -11 -42 -21 -45 -24 -3 -3 -25 -12 -50 -20 -65 -20 -128 -49 -110 -51 8 -1 -5 -5 -29 -10 -25 -5 -48 -14 -53 -21 -4 -7 -8 -10 -8 -6 0 5 -106 -34 -200 -74 -24 -10 -24 -11 -5 -19 17 -8 15 -8 -6 -4 -18 3 -38 -3 -63 -20 -20 -14 -42 -25 -48 -25 -5 0 -8 -7 -4 -15 3 -8 -2 -19 -12 -24 -15 -9 -17 -41 -20 -346 -3 -331 -2 -338 20 -387 14 -31 33 -55 50 -64 15 -8 28 -19 28 -24 0 -6 13 -10 28 -10 15 0 43 -11 62 -25 19 -14 39 -25 45 -25 6 0 29 -9 50 -19 22 -10 45 -17 52 -14 7 3 13 1 13 -4 0 -9 63 -44 76 -42 4 0 11 -5 15 -13 7 -10 9 -10 9 2 1 13 2 13 13 0 17 -21 75 -50 98 -50 10 0 19 -4 19 -10 0 -5 7 -10 16 -10 9 0 45 -16 81 -35 36 -19 73 -35 83 -35 10 0 22 -4 25 -10 3 -5 18 -10 32 -10 15 0 24 -3 20 -6 -7 -7 60 -44 79 -44 6 0 17 -7 24 -15 17 -20 40 -19 56 2 13 17 14 17 8 1 -6 -19 10 -25 21 -9 3 5 18 12 33 16 28 6 57 39 47 55 -3 4 0 10 5 12 7 2 10 243 10 742 0 719 -1 740 -20 770 -11 17 -20 28 -20 23 0 -4 -13 -1 -30 8 -37 19 -90 19 -118 -1z"/> </g> </svg> 